<?xml version="1.0" standalone="no"?>
<!DOCTYPE svg PUBLIC "-//W3C//DTD SVG 20010904//EN"
 "http://www.w3.org/TR/2001/REC-SVG-20010904/DTD/svg10.dtd">
<svg version="1.0" xmlns="http://www.w3.org/2000/svg"
 width="2550.000000pt" height="2550.000000pt" viewBox="0 0 2550.000000 2550.000000"
 preserveAspectRatio="xMidYMid meet">

<g transform="translate(0.000000,2550.000000) scale(0.100000,-0.100000)"
fill="#000000" stroke="none">
<path d="M4410 23413 c-245 -23 -410 -57 -616 -124 -248 -82 -501 -215 -719
-378 -127 -96 -334 -297 -438 -426 -290 -359 -476 -798 -539 -1270 -19 -149
-19 -16781 0 -16930 60 -446 226 -857 491 -1210 96 -127 297 -334 426 -438
359 -290 798 -476 1270 -539 149 -19 16781 -19 16930 0 472 63 911 249 1270
539 129 104 330 311 426 438 265 353 431 764 491 1210 19 149 19 16781 0
16930 -63 472 -249 911 -539 1270 -104 129 -311 330 -438 426 -342 256 -712
411 -1167 486 -97 16 -624 18 -8458 19 -4595 0 -8371 -1 -8390 -3z m16617
-1674 c188 -26 333 -99 473 -239 140 -140 213 -285 239 -473 15 -111 15
-16443 0 -16554 -26 -188 -99 -333 -239 -473 -140 -140 -285 -213 -473 -239
-111 -15 -16443 -15 -16554 0 -188 26 -333 99 -473 239 -140 140 -213 285
-239 473 -15 111 -15 16443 0 16554 25 185 99 332 234 469 135 136 293 218
470 243 93 13 16466 13 16562 0z"/>
<path d="M7290 12555 l0 -1905 5805 0 5805 0 0 1905 0 1905 -5805 0 -5805 0 0
-1905z"/>
</g>
</svg>
