<?xml version="1.0" encoding="UTF-8" standalone="no"?>
<!DOCTYPE svg PUBLIC "-//W3C//DTD SVG 1.1//EN" "http://www.w3.org/Graphics/SVG/1.1/DTD/svg11.dtd">
<svg width="100%" height="100%" viewBox="0 0 612 612" version="1.1" xmlns="http://www.w3.org/2000/svg" xmlns:xlink="http://www.w3.org/1999/xlink" xml:space="preserve" xmlns:serif="http://www.serif.com/" style="fill-rule:evenodd;clip-rule:evenodd;stroke-linejoin:round;stroke-miterlimit:2;">
    <g transform="matrix(1,0,0,1,50,50)">
        <path d="M452,512L60,512C26.914,512 0,485.086 0,452L0,60C0,26.914 26.914,0 60,0L452,0C485.086,0 512,26.914 512,60L512,452C512,485.086 485.086,512 452,512ZM60,40C48.973,40 40,48.973 40,60L40,452C40,463.027 48.973,472 60,472L452,472C463.027,472 472,463.027 472,452L472,60C472,48.973 463.027,40 452,40L60,40ZM430.898,151.344L401.098,124.656L216.133,331.223L108.781,229.176L81.223,258.164L218.441,388.609L430.898,151.344Z" style="fill-rule:nonzero;"/>
    </g>
</svg>
