<?xml version="1.0" encoding="UTF-8"?>
<svg width="22px" height="22px" viewBox="0 0 22 22" version="1.1" xmlns="http://www.w3.org/2000/svg" xmlns:xlink="http://www.w3.org/1999/xlink">
    <title>content_copy_black_24dp copy 5</title>
    <g id="Page-1" stroke="none" stroke-width="1" fill="none" fill-rule="evenodd">
        <g id="Artboard" transform="translate(-170.000000, -57.000000)">
            <g id="content_copy_black_24dp-copy-5" transform="translate(170.000000, 57.000000)">
                <polygon id="Path" points="0 0 22 0 22 22 0 22"></polygon>
                <path d="M14.5263158,1 L3.78947368,1 C2.80526316,1 2,1.81818182 2,2.81818182 L2,15.5454545 L3.78947368,15.5454545 L3.78947368,2.81818182 L14.5263158,2.81818182 L14.5263158,1 Z M17.2105263,4.63636364 L7.36842105,4.63636364 C6.38421053,4.63636364 5.57894737,5.45454545 5.57894737,6.45454545 L5.57894737,19.1818182 C5.57894737,20.1818182 6.38421053,21 7.36842105,21 L17.2105263,21 C18.1947368,21 19,20.1818182 19,19.1818182 L19,6.45454545 C19,5.45454545 18.1947368,4.63636364 17.2105263,4.63636364 Z M17.2105263,19.1818182 L7.36842105,19.1818182 L7.36842105,6.45454545 L17.2105263,6.45454545 L17.2105263,19.1818182 Z" id="Shape" fill="#333333" fill-rule="nonzero"></path>
            </g>
        </g>
    </g>
</svg>