<?xml version="1.0" encoding="UTF-8"?>
<svg width="24px" height="24px" viewBox="0 0 24 24" version="1.1" xmlns="http://www.w3.org/2000/svg" xmlns:xlink="http://www.w3.org/1999/xlink">
    <title>Group Copy 6</title>
    <g id="Page-1" stroke="none" stroke-width="1" fill="none" fill-rule="evenodd">
        <g id="Artboard" transform="translate(-13.000000, -56.000000)">
            <g id="Group-Copy-6" transform="translate(13.000000, 56.000000)">
                <polygon id="Path" points="0 0 24 0 24 24 0 24"></polygon>
                <path d="M16.5791881,13.9496855 L15.7209834,13.9496855 L15.4168096,13.6563751 C16.481418,12.4179531 17.1223556,10.8101772 17.1223556,9.06117782 C17.1223556,5.16123499 13.9611206,2 10.0611778,2 C6.16123499,2 3,5.16123499 3,9.06117782 C3,12.9611206 6.16123499,16.1223556 10.0611778,16.1223556 C11.8101772,16.1223556 13.4179531,15.481418 14.6563751,14.4168096 L14.9496855,14.7209834 L14.9496855,15.5791881 L20.3813608,21 L22,19.3813608 L16.5791881,13.9496855 Z M10.0611778,13.9496855 C7.35620354,13.9496855 5.1726701,11.7661521 5.1726701,9.06117782 C5.1726701,6.35620354 7.35620354,4.1726701 10.0611778,4.1726701 C12.7661521,4.1726701 14.9496855,6.35620354 14.9496855,9.06117782 C14.9496855,11.7661521 12.7661521,13.9496855 10.0611778,13.9496855 Z" id="Shape" fill="#333333" fill-rule="nonzero"></path>
            </g>
        </g>
    </g>
</svg>